# xmcd
#
# Track frame offsets:
#	150
#	17647
#	41474
#	58296
#	76663
#	95685
#	115062
#	133819
#	157286
#	177768
#	199190
#	215482
#	234284
#	256711
#
# Disc length: 3710 seconds
#
# Revision: 0
# Processed by: cddbd v1.5.2PL0 Copyright (c) Steve Scherf et al.
# Submitted via: EasyCDDAExtractor 10.0.2.1
#
DISCID=ba0e7c0e
DTITLE=Various Artist - 2007 Mainstream Stepper Vol 4
DYEAR=2007
DGENRE=R&B
TTITLE0=Marcell and The Truth - Maybe I'm Not The Man
TTITLE1=Rae and Christian - The Hush
TTITLE2=Joe - It's Me
TTITLE3=Joe - It's Me
TTITLE4=Mica Paris - Sixth Street
TTITLE5=Keplyn - My Girl
TTITLE6=Adrianna Evans - Looking 4 Your Love
TTITLE7=Ne-Yo w/Jennifer Hudson - Leaving Tonite
TTITLE8=Marzette Griffith - It Was You
TTITLE9=Luther Vandross  - Bad Company
TTITLE10=Gordon Chambers - To Love Again
TTITLE11=Carona Brone - Unbelievable
TTITLE12=Jean Baylor - Made To Love You
TTITLE13=Zsa Zsa - Weak
EXTD=
EXTT0=
EXTT1=
EXTT2=
EXTT3=
EXTT4=
EXTT5=
EXTT6=
EXTT7=
EXTT8=
EXTT9=
EXTT10=
EXTT11=
EXTT12=
EXTT13=
PLAYORDER=
